<?xml version="1.0" encoding="UTF-8" standalone="no"?>
<svg
   xmlns:dc="http://purl.org/dc/elements/1.1/"
   xmlns:cc="http://creativecommons.org/ns#"
   xmlns:rdf="http://www.w3.org/1999/02/22-rdf-syntax-ns#"
   xmlns:svg="http://www.w3.org/2000/svg"
   xmlns="http://www.w3.org/2000/svg"
   xmlns:sodipodi="http://sodipodi.sourceforge.net/DTD/sodipodi-0.dtd"
   xmlns:inkscape="http://www.inkscape.org/namespaces/inkscape"
   viewBox="0 0 368.60001 595.51703"
   height="595.51703"
   width="368.60001"
   xml:space="preserve"
   id="svg2"
   version="1.1"
   inkscape:version="0.91 r13725"
   sodipodi:docname="da.svg"><sodipodi:namedview
     pagecolor="#ffffff"
     bordercolor="#666666"
     borderopacity="1"
     objecttolerance="10"
     gridtolerance="10"
     guidetolerance="10"
     inkscape:pageopacity="0"
     inkscape:pageshadow="2"
     inkscape:window-width="1920"
     inkscape:window-height="1018"
     id="namedview4143"
     showgrid="false"
     inkscape:zoom="0.55273438"
     inkscape:cx="790.61484"
     inkscape:cy="768"
     inkscape:window-x="-8"
     inkscape:window-y="-8"
     inkscape:window-maximized="1"
     inkscape:current-layer="g12" /><metadata
     id="metadata8"><rdf:RDF><cc:Work
         rdf:about=""><dc:format>image/svg+xml</dc:format><dc:type
           rdf:resource="http://purl.org/dc/dcmitype/StillImage" /><dc:title></dc:title></cc:Work></rdf:RDF></metadata><defs
     id="defs6" /><g
     id="g12"
     transform="matrix(0.13333333,0,0,-0.13333333,0,595.51697)"><path
       inkscape:connector-curvature="0"
       d="m 6913.19,7096.63 0.04,0 41.93,80.02 0,812.1 -812.1,0 -81.06,-81.74 -383.2,-730.26 -120.49,-81.3 -1367.65,0 0,-1115.24 751.88,0 66.97,-81.01 -776.89,-1484.7 -0.04,0 -41.92,-80.03 0,-812.1 812.1,0 81.05,81.74 383.2,730.26 120.5,81.3 1367.65,0 0,1115.25 -751.88,0 -66.89,81.55 776.8,1484.16"
       style="fill:#ffffff;fill-opacity:1;fill-rule:nonzero;stroke:none"
       id="path16" /><path
       inkscape:connector-curvature="0"
       d="m 2722.533,3574.2597 0.037,0 41.93,80.02 0,812.1 -812.1,0 -81.06,-81.74 -383.2,-730.26 -120.49,-81.3 -1367.65,0 0,-1115.2397 751.88,0 66.9701,-81.01 L 41.96,892.13 l -0.04,0 -41.9171,-80.03 0,-812.1 812.1,0 81.05,81.74 383.2,730.26 120.5,81.3 1367.65,0 0,1115.25 -751.88,0 -66.89,81.55 776.8,1484.1597"
       style="fill:#ffffff;fill-opacity:1;fill-rule:nonzero;stroke:none"
       id="path16-7" /></g></svg>