<?xml version="1.0" encoding="UTF-8" standalone="no"?>
<svg
   xmlns:dc="http://purl.org/dc/elements/1.1/"
   xmlns:cc="http://creativecommons.org/ns#"
   xmlns:rdf="http://www.w3.org/1999/02/22-rdf-syntax-ns#"
   xmlns:svg="http://www.w3.org/2000/svg"
   xmlns="http://www.w3.org/2000/svg"
   xmlns:sodipodi="http://sodipodi.sourceforge.net/DTD/sodipodi-0.dtd"
   xmlns:inkscape="http://www.inkscape.org/namespaces/inkscape"
   viewBox="0 0 631.60401 867.83502"
   height="867.83502"
   width="631.604"
   xml:space="preserve"
   id="svg2"
   version="1.1"
   inkscape:version="0.91 r13725"
   sodipodi:docname="tu.svg"><sodipodi:namedview
     pagecolor="#3e3e3e"
     bordercolor="#666666"
     borderopacity="1"
     objecttolerance="10"
     gridtolerance="10"
     guidetolerance="10"
     inkscape:pageopacity="0"
     inkscape:pageshadow="2"
     inkscape:window-width="1920"
     inkscape:window-height="1018"
     id="namedview4171"
     showgrid="false"
     inkscape:zoom="0.7200535"
     inkscape:cx="345.68766"
     inkscape:cy="476.14908"
     inkscape:window-x="-8"
     inkscape:window-y="-8"
     inkscape:window-maximized="1"
     inkscape:current-layer="svg2" /><metadata
     id="metadata8"><rdf:RDF><cc:Work
         rdf:about=""><dc:format>image/svg+xml</dc:format><dc:type
           rdf:resource="http://purl.org/dc/dcmitype/StillImage" /><dc:title></dc:title></cc:Work></rdf:RDF></metadata><defs
     id="defs6" /><g
     transform="matrix(1.3333333,0,0,-1.3333333,0,867.835)"
     id="g10"><g
       transform="scale(0.1,0.1)"
       id="g12"><path
         id="path16"
         style="fill:#ffffff;fill-opacity:1;fill-rule:nonzero;stroke:none"
         d="M 4425.24,610.88879 C 4221.99,415.46884 3804.88,270.30084 3405.1,263.53884 c -15.1,-0.258 -29.91,-0.391 -44.78,-0.391 l -0.13,0 C 2045.24,263.21884 1694.4,1266.9888 1694.4,1860.1188 l 0,1822.64 c 0,15.03 -12.19,27.22 -27.22,27.22 l -635.84,0 c -15.04,0 -27.23,12.19 -27.23,27.23 l 0,830.29 c 0,11.11 6.95,21 17.3,25.03 679.59,264.55 1059.11,790.21 1158.94,1603.27 5.56,45.16 42.82,46.4 43.21,46.4 l 848.76,0 c 15.04,0 27.23,-12.19 27.23,-27.23 l 0,-1459.28 c 0,-15.03 12.19,-27.22 27.23,-27.22 l 1056.53,0 c 15.04,0 27.23,-12.2 27.23,-27.23 l 0,-964.03 c 0,-15.04 -12.19,-27.23 -27.23,-27.23 l -1061.08,0 c -15.04,0 -27.23,-12.19 -27.23,-27.23 l 0.03,-1732.17 c 6.25,-390.02 195.01,-587.73 561.04,-587.73 147.49,0 316.42,34.31 470.65,93.23 14.41,5.51 30.33,-1.83 35.26,-16.45 l 269.91,-800.11001 c 3.4,-10.09 1.02,-21.26 -6.65,-28.63 M 3184.23,-1.6479493e-4 C 3835.5,-1.6479493e-4 4480.8,231.86684 4694.27,512.78884 l 42.76,56.29995 -403.69,1196.56001 c -3.74,11.07 -14.12,18.52 -25.8,18.52 l -901.88,0 c -12.21,0 -23.25,7.78 -26.35,19.59 -10.5,39.9 -16.78,88.69 -17.75,148.97 l 0,1463.46 c 0,15.04 12.19,27.23 27.23,27.23 l 1061.09,0 c 15.04,0 27.23,12.19 27.23,27.23 l 0,1497.15 c 0,15.04 -12.19,27.23 -27.23,27.23 l -1056.54,0 c -15.03,0 -27.22,12.19 -27.22,27.23 l 0,1459.27 c 0,15.04 -12.19,27.23 -27.23,27.23 l -1852.88,0 c -132.5,0 -285.4,-98.27 -307.76,-280.42 -92.51,-753.29 -437.98,-1205.2 -1087.207,-1422.17 l -72.4375,-24.18 C 7.49219,4778.2788 0,4767.8788 0,4756.1588 l 0,-1285.51 c 0,-15.04 12.1914,-27.23 27.2266,-27.23 l 663.0624,0 c 0,0 0,-1199.94 0,-1583.3 C 690.289,596.20879 1565.71,-1.6479493e-4 3184.23,-1.6479493e-4"
         inkscape:connector-curvature="0" /></g></g></svg>